<svg width="240" height="240" viewBox="0 0 240 240" fill="none" xmlns="http://www.w3.org/2000/svg">
<g clip-path="url(#clip0_3294_1256)">
<path d="M209.994 0H30.006C13.4341 0 0 13.4341 0 30.006V209.994C0 226.566 13.4341 240 30.006 240H209.994C226.566 240 240 226.566 240 209.994V30.006C240 13.4341 226.566 0 209.994 0Z" fill="#F5F3FC"/>
<path d="M186.96 58.91L29.38 55.72L22.5 218.43L88.44 217.49L180.01 223.07L186.96 58.92V58.91Z" fill="#DAD0F7"/>
<path d="M188.38 58.54L30.8002 51.44L23.9102 214.14L89.8502 217.12L183.1 183.21L188.37 58.54H188.38Z" fill="url(#paint0_linear_3294_1256)"/>
<path d="M103.53 165.7C103.53 163.11 102.65 161.01 100.79 159.28C94.2099 153.1 77.5999 153.34 71.7599 153.96L71.1099 147.45C72.0799 147.35 94.9899 145.06 105.01 154.39C108.21 157.36 109.83 161.14 109.83 165.64" fill="#9F7AF6"/>
<path d="M104.59 165.7C104.59 161.2 106.21 157.42 109.41 154.45C119.43 145.11 142.38 147.41 143.31 147.51L142.66 153.97C136.82 153.35 120.22 153.11 113.63 159.29C111.78 161.01 110.89 163.12 110.89 165.71" fill="#9F7AF6"/>
<path d="M132.05 115.18C132.05 115.18 121.62 112.12 117.77 118.01C113.87 123.8 124.45 131.94 132.05 115.18Z" fill="#9F7AF6"/>
<path d="M138.91 131.42C138.91 131.42 129.22 126.44 124.35 131.47C119.48 136.5 128.43 146.51 138.91 131.42Z" fill="#9F7AF6"/>
<path d="M106.55 101.39C106.55 101.39 99.8302 110.15 103.58 116.09C107.34 122.03 118.65 115.04 106.55 101.39Z" fill="#9F7AF6"/>
<path d="M106.68 125.91C106.68 125.91 99.7202 134.48 103.29 140.51C106.86 146.54 118.36 139.94 106.68 125.91Z" fill="#9F7AF6"/>
<path d="M81.73 115.18C81.73 115.18 92.16 112.12 96.01 118.01C99.86 123.9 89.33 131.94 81.73 115.18Z" fill="#9F7AF6"/>
<path d="M74.8999 131.42C74.8999 131.42 84.5899 126.44 89.4599 131.47C94.3299 136.5 85.3299 146.51 74.8999 131.42Z" fill="#9F7AF6"/>
<path d="M183.38 181.73L90.1299 215.64L185.75 212.83L183.38 181.73Z" fill="#F5F3FC"/>
<path d="M18.3201 199.57L34.3401 213.82C34.4601 213.98 34.6001 214.13 34.7601 214.25L40.1701 217.95C40.3601 218.08 40.5601 218.17 40.7801 218.21C41.0001 218.26 41.2201 218.26 41.4401 218.21C41.6601 218.16 41.8701 218.08 42.0501 217.95C42.2401 217.82 42.3901 217.66 42.5201 217.46L54.1901 199.27C54.3101 199.08 54.4001 198.86 54.4501 198.64C54.4901 198.41 54.4901 198.18 54.4501 197.95C54.4101 197.72 54.3201 197.51 54.2001 197.32C54.0801 197.13 53.9201 196.96 53.7301 196.84L48.3101 193.14C48.1501 193.02 47.9701 192.94 47.7701 192.89L22.9601 192.39C22.6201 192.3 22.2701 192.33 21.9401 192.46C21.6201 192.59 21.3401 192.82 21.1501 193.12L18.2901 197.56C18.1001 197.86 17.9901 198.21 18.0001 198.57C18.0001 198.93 18.1101 199.28 18.3201 199.57Z" fill="black" fill-opacity="0.1"/>
<path d="M20.2602 188.8L34.1502 208.2C34.2702 208.37 34.4102 208.51 34.5802 208.61L39.9902 212.32C40.1802 212.45 40.3802 212.54 40.6002 212.58C40.8202 212.63 41.0402 212.62 41.2602 212.58C41.4802 212.53 41.6902 212.44 41.8702 212.31C42.0502 212.18 42.2102 212.01 42.3302 211.82L54.0602 193.64C54.3002 193.25 54.3902 192.78 54.3002 192.32C54.2102 191.86 53.9502 191.46 53.5802 191.2L48.1702 187.5C48.0102 187.38 47.8302 187.3 47.6302 187.25L24.9202 181.59C24.5802 181.51 24.2202 181.54 23.9002 181.67C23.5802 181.8 23.3002 182.03 23.1002 182.33L20.2502 186.77C20.0502 187.06 19.9502 187.42 19.9502 187.77C19.9502 188.12 20.0602 188.48 20.2502 188.77L20.2602 188.8Z" fill="url(#paint1_linear_3294_1256)"/>
<path d="M52.5299 195.25L49.3099 193.05L24.8799 183.18L50.4899 191.21L53.6899 193.41L52.5199 195.24L52.5299 195.25Z" fill="url(#paint2_linear_3294_1256)"/>
<path d="M219.17 173.13C219.13 173.03 219.08 172.93 219.02 172.85L217.35 170.27L140.08 52.03L138.4 49.51C138.28 49.32 138.12 49.15 137.93 49.03C137.74 48.9 137.54 48.81 137.32 48.77C137.1 48.73 136.88 48.73 136.66 48.77C136.44 48.82 136.23 48.91 136.05 49.04L134.13 46.09C133.84 45.64 133.45 45.27 132.99 45L121.46 38.28C121.34 38.22 121.25 38.12 121.17 38.01L120.09 36.37C119.96 36.19 119.78 36.06 119.56 36.02C119.35 35.98 119.13 36.02 118.94 36.14L116.17 38.08L118.6 36.39L114.36 31.81C114.04 31.46 113.62 31.24 113.16 31.19C112.7 31.14 112.24 31.26 111.86 31.52C111.48 31.78 111.2 32.19 111.08 32.65C110.96 33.11 110.99 33.6 111.19 34.03L113.72 39.76L113.37 40C113.19 40.13 113.07 40.32 113.03 40.54C112.99 40.76 113.03 40.99 113.14 41.18L114.22 42.83C114.3 42.94 114.35 43.07 114.36 43.21L116.09 56.76C116.16 57.3 116.34 57.81 116.64 58.26L118.56 61.21C118.37 61.34 118.2 61.51 118.08 61.71C117.95 61.91 117.87 62.13 117.83 62.36C117.79 62.59 117.79 62.83 117.85 63.06C117.9 63.29 118 63.51 118.13 63.7L119.81 66.28L197.08 184.46L202.17 192.25C203.62 194.61 206.88 194.81 210.68 192.25C215.83 188.82 219.99 181.73 219.99 176.42C220.02 175.28 219.75 174.14 219.2 173.15L219.17 173.13Z" fill="black" fill-opacity="0.1"/>
<path d="M119.54 21.37L114.92 24.86L112.56 18.94C112.38 18.49 112.34 17.99 112.46 17.51C112.58 17.04 112.84 16.62 113.21 16.35C113.58 16.08 114.02 15.96 114.45 16.01C114.89 16.06 115.29 16.29 115.6 16.64L119.55 21.37H119.54Z" fill="#9F7AF6"/>
<path d="M119.75 49.44L199.33 171.17L219.66 157L140.08 35.26L119.75 49.43V49.44Z" fill="url(#paint3_linear_3294_1256)"/>
<path d="M207.98 162.6C207.66 162.1 207.23 161.81 206.65 161.73C204.61 161.41 201.44 163.67 200.39 164.56L199.45 163.39C199.63 163.24 203.75 159.76 206.85 160.22C207.84 160.37 208.62 160.88 209.18 161.75" fill="#F7A62E"/>
<path d="M208.19 162.46C207.63 161.59 207.47 160.65 207.72 159.65C208.49 156.52 213.2 153.91 213.39 153.81L214.07 155.14C212.87 155.8 209.64 157.96 209.14 160.02C209 160.6 209.09 161.12 209.41 161.62" fill="#F7A62E"/>
<path d="M207.18 149.08C207.18 149.08 204.79 149.88 204.78 151.52C204.75 153.15 207.8 153.32 207.18 149.08Z" fill="#F7A62E"/>
<path d="M210.53 151.29C210.53 151.29 208.04 151.62 207.73 153.23C207.42 154.85 210.39 155.59 210.53 151.29Z" fill="#F7A62E"/>
<path d="M200.55 149.81C200.55 149.81 200.35 152.39 201.81 153.04C203.27 153.69 204.58 150.83 200.55 149.81Z" fill="#F7A62E"/>
<path d="M203.63 154.51C203.63 154.51 203.36 157.09 204.8 157.77C206.24 158.46 207.63 155.66 203.63 154.51Z" fill="#F7A62E"/>
<path d="M197.48 155.76C197.48 155.76 199.11 153.78 200.59 154.41C202.07 155.03 201.04 157.98 197.48 155.76Z" fill="#F7A62E"/>
<path d="M198.19 159.8C198.19 159.8 199.44 157.55 201 157.87C202.57 158.19 202.08 161.32 198.19 159.8Z" fill="#F7A62E"/>
<path d="M119.76 49.44L199.34 171.17L205.04 167.2L125.46 45.47L119.76 49.44Z" fill="black" fill-opacity="0.1"/>
<path d="M201.06 173.72L199.38 171.14L219.67 156.99L221.35 159.57C221.6 159.95 221.69 160.43 221.61 160.88C221.53 161.34 221.27 161.74 220.89 162L203.37 174.22C203 174.48 202.54 174.58 202.1 174.49C201.66 174.4 201.27 174.14 201.02 173.75L201.06 173.72Z" fill="#1E1A33"/>
<path d="M138.4 32.71L140.08 35.29L119.71 49.49L118.03 46.91C117.78 46.53 117.69 46.05 117.77 45.6C117.86 45.14 118.11 44.74 118.48 44.48L136.04 32.24C136.41 31.98 136.87 31.88 137.31 31.97C137.75 32.06 138.14 32.32 138.39 32.71H138.4Z" fill="#1E1A33"/>
<path d="M132.97 28.25L121.44 21.54C121.33 21.47 121.23 21.37 121.15 21.26L120.07 19.62C119.95 19.44 119.76 19.31 119.54 19.27C119.33 19.23 119.11 19.27 118.92 19.39L113.37 23.27C113.19 23.4 113.07 23.59 113.03 23.81C112.99 24.03 113.03 24.26 113.14 24.45L114.22 26.09C114.3 26.2 114.35 26.33 114.36 26.47L116.09 40.02C116.15 40.56 116.34 41.08 116.64 41.53L118.56 44.47L136.08 32.27L134.16 29.32C133.85 28.88 133.44 28.52 132.97 28.27V28.25Z" fill="#1E1A33"/>
<path d="M120.56 21.86L132.61 29.34L134.51 32.25L132.75 33.48L130.85 30.56L120.56 21.86Z" fill="#9F7AF6"/>
<path d="M136.28 32.6L134.52 33.83L136.68 37.13L138.44 35.9L136.28 32.6Z" fill="#9F7AF6"/>
<path d="M218.49 158.36L216.73 159.59L218.89 162.89L220.65 161.66L218.49 158.36Z" fill="#9F7AF6"/>
<path d="M63.3198 107.82C63.3198 107.82 59.3198 107.19 55.5298 107.09" stroke="#7748F6" stroke-width="2.76" stroke-linecap="round" stroke-linejoin="round"/>
<path d="M70.3599 98.54C70.3599 98.54 69.1299 95.48 67.8999 91.12" stroke="#7748F6" stroke-width="2.76" stroke-linecap="round" stroke-linejoin="round"/>
</g>
<defs>
<linearGradient id="paint0_linear_3294_1256" x1="106.15" y1="51.44" x2="106.15" y2="217.12" gradientUnits="userSpaceOnUse">
<stop stop-color="#E9E2FF"/>
<stop offset="1" stop-color="#EEEBF9"/>
</linearGradient>
<linearGradient id="paint1_linear_3294_1256" x1="21.7702" y1="186.4" x2="48.0002" y2="202.28" gradientUnits="userSpaceOnUse">
<stop stop-color="#FBB958"/>
<stop offset="1" stop-color="#FCB141"/>
</linearGradient>
<linearGradient id="paint2_linear_3294_1256" x1="61.8899" y1="196.17" x2="27.3799" y2="185.82" gradientUnits="userSpaceOnUse">
<stop stop-color="white"/>
<stop offset="1" stop-color="white" stop-opacity="0"/>
</linearGradient>
<linearGradient id="paint3_linear_3294_1256" x1="167.36" y1="101.2" x2="225.87" y2="151.51" gradientUnits="userSpaceOnUse">
<stop stop-color="#FBB040"/>
<stop offset="1" stop-color="#FFCC81"/>
</linearGradient>
<clipPath id="clip0_3294_1256">
<rect width="240" height="240" fill="white"/>
</clipPath>
</defs>
</svg>
