<svg width="240" height="240" viewBox="0 0 240 240" fill="none" xmlns="http://www.w3.org/2000/svg">
<g clip-path="url(#clip0_3294_1261)">
<path d="M209.994 0H30.006C13.4341 0 0 13.4341 0 30.006V209.994C0 226.566 13.4341 240 30.006 240H209.994C226.566 240 240 226.566 240 209.994V30.006C240 13.4341 226.566 0 209.994 0Z" fill="#F5F3FC"/>
<path d="M148.319 22H137.025C136.21 22 135.513 22.5973 135.369 23.4196L133.025 36.9919C132.847 38.0392 133.637 39 134.681 39H145.975C146.79 39 147.487 38.4028 147.631 37.5804L149.975 24.0081C150.153 22.9608 149.363 22 148.319 22Z" fill="#423C60"/>
<path d="M186.666 35H92.7345C90.1525 35 87.9307 36.8583 87.4847 39.4134L69.0844 142.711C68.5011 145.989 71.0145 149 74.3343 149H168.265C170.848 149 173.069 147.142 173.515 144.587L191.916 41.2889C192.499 38.0111 189.985 35 186.666 35Z" fill="url(#paint0_linear_3294_1261)"/>
<path d="M106 151H91.25L68 218H82.75L106 151Z" fill="#423C60"/>
<path d="M136 151H151.241L174 218H158.759L136 151Z" fill="#423C60"/>
<path d="M181.021 147H60.9791C59.8861 147 59 147.939 59 149.097V159.903C59 161.061 59.8861 162 60.9791 162H181.021C182.114 162 183 161.061 183 159.903V149.097C183 147.939 182.114 147 181.021 147Z" fill="#423C60"/>
<path d="M105 85C106.657 85 108 83.433 108 81.5C108 79.567 106.657 78 105 78C103.343 78 102 79.567 102 81.5C102 83.433 103.343 85 105 85Z" fill="#1E1A33"/>
<path d="M120.5 124C122.433 124 124 122.433 124 120.5C124 118.567 122.433 117 120.5 117C118.567 117 117 118.567 117 120.5C117 122.433 118.567 124 120.5 124Z" fill="#1E1A33"/>
<path d="M105 82C105 82 95.1702 87.517 92.6705 93.4668C90.5622 98.483 93.5868 102.447 99.4846 104" stroke="#1E1A33" stroke-width="1.05" stroke-miterlimit="10"/>
<path d="M103 104C110.694 104.778 119.513 108.72 120 119" stroke="#1E1A33" stroke-width="1.05" stroke-miterlimit="10"/>
<path d="M71.0257 130.983L89.6304 119.398L90.7102 118.784C90.7959 118.742 90.873 118.682 90.933 118.606C90.993 118.529 91.0444 118.444 91.0701 118.359C91.0958 118.273 91.1044 118.171 91.0958 118.077C91.0873 117.984 91.0616 117.89 91.0101 117.813L92.2527 117.106C92.4413 117.004 92.6041 116.851 92.7241 116.672L95.852 112.131C95.8777 112.08 95.9206 112.046 95.972 112.021L96.6661 111.629C96.7432 111.586 96.8032 111.51 96.8289 111.424C96.8546 111.339 96.8461 111.246 96.8032 111.169L96.7175 111.016L98.6886 109.431C98.8342 109.312 98.9456 109.141 98.9799 108.954C99.0228 108.767 98.9971 108.571 98.9028 108.409C98.8085 108.247 98.6714 108.119 98.4914 108.051C98.3201 107.983 98.123 107.983 97.943 108.051L95.5692 108.911L96.1348 109.959L95.4921 108.758C95.4492 108.681 95.3721 108.622 95.295 108.605C95.2093 108.579 95.115 108.596 95.0379 108.639L94.3437 109.031C94.3009 109.056 94.2409 109.073 94.1895 109.073L88.7906 109.363C88.5764 109.371 88.3621 109.431 88.1736 109.542L86.931 110.249C86.8881 110.172 86.8282 110.096 86.7596 110.044C86.691 109.985 86.6053 109.942 86.5196 109.925C86.4339 109.9 86.3397 109.891 86.254 109.908C86.1597 109.917 86.074 109.951 85.9969 109.993L84.9257 110.59L72.8939 120.488L71 131L71.0257 130.983Z" fill="url(#paint1_linear_3294_1261)"/>
<path d="M99.0937 103.055C99.2502 102.985 99.4215 102.985 99.578 103.039C99.727 103.101 99.8537 103.218 99.9282 103.374C100.003 103.53 100.018 103.725 99.9804 103.904C99.9357 104.091 99.8388 104.255 99.7047 104.379L97.9314 106L97 103.982L99.0937 103.055Z" fill="#1E1A33"/>
<path d="M86.1151 105L33 135.675L37.8849 145L91 114.334L86.1151 105.009V105Z" fill="url(#paint2_linear_3294_1261)"/>
<path d="M36 139.206C36.3367 138.98 36.6964 138.945 37.0485 139.076C38.1735 139.501 38.9617 141.653 39 141.74L38.4796 142C38.2806 141.453 37.5995 139.969 36.8571 139.692C36.6505 139.614 36.4515 139.64 36.2602 139.761" fill="#F7A62E"/>
<path d="M35.6417 139.479C35.9136 139.359 36.0876 139.19 36.1637 138.966C36.4356 138.148 35.4133 136.794 35 136.345L35.6525 136C35.7178 136.072 37.3383 137.844 36.9359 139.094C36.8054 139.495 36.5008 139.8 36.0223 140" fill="#F7A62E"/>
<path d="M37.9703 136.586C38.1745 135.756 37.26 135 37.26 135C36.4521 137.054 37.7661 137.416 37.9703 136.586Z" fill="#F7A62E"/>
<path d="M40.2666 137.999C40.7157 138.04 41 137.069 41 137.069C39.8573 136.694 39.8175 137.958 40.2666 137.999Z" fill="#F7A62E"/>
<path d="M38.2793 139C38.7348 139.016 39 138.053 39 138.053C37.8353 137.732 37.8238 138.976 38.2793 139Z" fill="#F7A62E"/>
<path d="M40.3499 138.003C40.8344 138.094 41 139.98 41 139.98C39.7305 140.239 39.8593 137.911 40.3499 138.003Z" fill="#F7A62E"/>
<path d="M39.4537 140.013C39.9727 140.152 40 141 40 141C38.5934 140.861 38.9279 139.874 39.4537 140.013Z" fill="#F7A62E"/>
<path d="M89.6216 112L36 142.409L37.3784 145L91 114.591L89.6216 112Z" fill="black" fill-opacity="0.1"/>
<path d="M36.773 145.906C36.5871 146 36.3734 146.025 36.1782 145.974C35.983 145.923 35.8156 145.795 35.7134 145.624L31.0937 137.64C30.9915 137.469 30.9729 137.272 31.038 137.085C31.103 136.897 31.2332 136.734 31.4191 136.64L32.6553 136L38 145.248L36.7637 145.889V145.906H36.773Z" fill="#1E1A33"/>
<path d="M87.8263 104.026C88.021 104.077 88.1878 104.205 88.2898 104.375L92.9065 112.363C93.0085 112.534 93.027 112.73 92.9621 112.917C92.8973 113.105 92.7675 113.267 92.5821 113.361L91.3491 114L86 104.733L87.233 104.094C87.4184 104 87.6316 103.975 87.8263 104.026Z" fill="#1E1A33"/>
<path d="M89.4122 104.436L88 105.166L92.6081 113L94.011 112.279C94.2247 112.17 94.4105 112.01 94.5498 111.826L98.1081 107.137L99 105.82L97.7736 104L96.25 104.059L90.109 104.268C89.8674 104.268 89.6258 104.327 89.4029 104.428L89.4122 104.436Z" fill="#1E1A33"/>
<path d="M95.9918 104L90.6451 105.274L89.4113 106L89 105.207L90.2338 104.489L96 104.008L95.9918 104Z" fill="url(#paint3_linear_3294_1261)"/>
<path d="M87 105.508L87.4545 106L89 105.492L88.5455 105L87 105.508Z" fill="url(#paint4_linear_3294_1261)"/>
<path d="M31 137.016L31.4545 138L33 136.984L32.5455 136L31 137.016Z" fill="url(#paint5_linear_3294_1261)"/>
<path d="M161 112.242L157.721 112L133 133.993L159.238 137L161 112.251V112.242Z" fill="url(#paint6_linear_3294_1261)"/>
<path d="M159 110.764L135.107 110C135.552 120.821 133.215 129.909 132 133.099L157.306 135L159 110.755V110.764Z" fill="url(#paint7_linear_3294_1261)"/>
<path d="M140 116L154 117" stroke="#1E1A33" stroke-width="0.74" stroke-miterlimit="10" stroke-linecap="round"/>
<path d="M140 120L154 121" stroke="#1E1A33" stroke-width="0.74" stroke-miterlimit="10" stroke-linecap="round"/>
<path d="M139 124L153 125" stroke="#1E1A33" stroke-width="0.74" stroke-miterlimit="10" stroke-linecap="round"/>
<path d="M123 47.2348L119.728 47L95 68.1153L121.244 71L123 47.2348Z" fill="url(#paint8_linear_3294_1261)"/>
<path d="M120.991 45.7325L97.1047 45C97.5458 55.3842 95.2194 64.1052 94 67.1731L119.305 69L121 45.7325H120.991Z" fill="url(#paint9_linear_3294_1261)"/>
<path d="M115.859 55.2269C116.282 56.1363 115.689 57.2042 114.944 57.7632C114.257 58.2721 113.41 58.5557 112.572 58.6725C111.682 58.7893 110.979 58.7977 110.445 57.9968C109.929 57.2209 109.81 56.4032 110.03 55.5106C110.098 55.2436 110.284 54.9766 110.598 55.0016C110.776 55.0183 110.937 55.1184 111.064 55.2269C111.902 55.9527 111.75 57.2459 111.047 58.0134C110.437 58.6892 109.463 58.9395 108.548 58.9812C107.176 59.0396 105.439 58.7309 104.422 57.7381C104.117 57.4378 103.897 57.029 103.906 56.6118C103.923 56.228 104.126 55.861 104.405 55.594C104.643 55.3687 104.939 55.1935 105.27 55.1768C106.566 55.1017 106.1 56.8204 105.964 57.5296C105.905 57.8382 105.812 58.1469 105.6 58.3805C105.041 59.0313 103.499 59.048 102.728 58.9645C102.076 58.8978 101.415 58.6225 101 58.1136" stroke="#1E1A33" stroke-width="0.73" stroke-miterlimit="10" stroke-linecap="round"/>
<path d="M140.699 35H186.882C190.071 35 192.482 37.9048 191.918 41.0588L181.701 98.6129L132.149 135L86 74.8762L140.699 35Z" fill="url(#paint10_linear_3294_1261)"/>
<path d="M140.062 95.516C145.932 99.4868 153.454 100.251 159.699 96.834C168.786 91.8725 171.712 79.96 166.25 70.2217C165.127 68.2237 163.74 66.4775 162.166 65C170.326 77.2651 167.799 83.553 161.298 91.117C153.658 101.057 138.93 94.752 140.062 95.516Z" fill="url(#paint11_linear_3294_1261)"/>
<path d="M157.952 61.9672C152.024 57.9658 144.922 58.1616 138.651 61.6522C129.527 66.7264 126.143 77.8795 131.686 87.7215C132.825 89.7392 134.23 91.5101 135.815 93C133.005 86.6487 131.866 82.2811 132.38 77.8455C133.45 68.7187 141.358 61.9672 150.602 61.7203C155.065 61.6011 158.484 62.3248 157.944 61.9672H157.952Z" fill="url(#paint12_linear_3294_1261)"/>
<path d="M163.73 89.0085L199.053 113.512C201.233 115.092 201.647 118.149 199.967 120.233C198.295 122.309 195.22 122.599 193.186 120.874L159 93.7401L163.73 89V89.0085Z" fill="#FBB040"/>
<mask id="mask0_3294_1261" style="mask-type:luminance" maskUnits="userSpaceOnUse" x="159" y="88" width="43" height="34">
<path d="M164.115 88.6454L199.247 113.229C201.415 114.814 201.826 117.882 200.155 119.973C198.493 122.055 195.434 122.346 193.412 120.616L159.411 93.3925L164.115 88.6368V88.6454Z" fill="white"/>
</mask>
<g mask="url(#mask0_3294_1261)">
<path d="M204.32 115.183L163.558 86.8888L161.647 89.468L202.392 119.047L204.32 115.183Z" fill="black" fill-opacity="0.1"/>
</g>
<path d="M169 92.0109L164.046 97L159 93.4091L164.037 89L169 92.0109Z" fill="#1E1A33"/>
<path d="M150.597 96.61C161.289 94.9605 168.682 85.3617 167.109 75.1703C165.537 64.9789 155.595 58.0543 144.903 59.7038C134.211 61.3532 126.819 70.9521 128.391 81.1435C129.963 91.3348 139.905 98.2594 150.597 96.61Z" stroke="#1E1A33" stroke-width="1.04" stroke-miterlimit="10" stroke-linecap="round"/>
<path opacity="0.29" d="M150.543 96.2628C161.034 94.6444 168.288 85.2261 166.745 75.2265C165.202 65.2268 155.447 58.4325 144.957 60.051C134.466 61.6694 127.212 71.0877 128.755 81.0873C130.297 91.0869 140.052 97.8812 150.543 96.2628Z" fill="white"/>
</g>
<defs>
<linearGradient id="paint0_linear_3294_1261" x1="68.9986" y1="92.0043" x2="192.001" y2="92.0043" gradientUnits="userSpaceOnUse">
<stop stop-color="#EBE9FF"/>
<stop offset="1" stop-color="#EFEEFF"/>
</linearGradient>
<linearGradient id="paint1_linear_3294_1261" x1="71.0257" y1="119.491" x2="99.0056" y2="119.491" gradientUnits="userSpaceOnUse">
<stop offset="0.56" stop-color="#C1BAE5" stop-opacity="0.8"/>
<stop offset="1" stop-color="#C1BAE5" stop-opacity="0.4"/>
</linearGradient>
<linearGradient id="paint2_linear_3294_1261" x1="63.2082" y1="124.035" x2="31.6265" y2="131.542" gradientUnits="userSpaceOnUse">
<stop stop-color="#FBB040"/>
<stop offset="1" stop-color="#FFCC81"/>
</linearGradient>
<linearGradient id="paint3_linear_3294_1261" x1="89" y1="105.004" x2="95.9918" y2="105.004" gradientUnits="userSpaceOnUse">
<stop offset="0.56" stop-color="#C1BAE5" stop-opacity="0.8"/>
<stop offset="1" stop-color="#C1BAE5" stop-opacity="0.4"/>
</linearGradient>
<linearGradient id="paint4_linear_3294_1261" x1="87" y1="105.503" x2="89" y2="105.503" gradientUnits="userSpaceOnUse">
<stop offset="0.56" stop-color="#C1BAE5" stop-opacity="0.8"/>
<stop offset="1" stop-color="#C1BAE5" stop-opacity="0.4"/>
</linearGradient>
<linearGradient id="paint5_linear_3294_1261" x1="31" y1="136.995" x2="33" y2="136.995" gradientUnits="userSpaceOnUse">
<stop offset="0.56" stop-color="#C1BAE5" stop-opacity="0.8"/>
<stop offset="1" stop-color="#C1BAE5" stop-opacity="0.4"/>
</linearGradient>
<linearGradient id="paint6_linear_3294_1261" x1="133" y1="124.496" x2="161" y2="124.496" gradientUnits="userSpaceOnUse">
<stop offset="0.56" stop-color="#C1BAE5" stop-opacity="0.8"/>
<stop offset="1" stop-color="#C1BAE5" stop-opacity="0.4"/>
</linearGradient>
<linearGradient id="paint7_linear_3294_1261" x1="132" y1="122.5" x2="159" y2="122.5" gradientUnits="userSpaceOnUse">
<stop stop-color="#C1BAE5"/>
<stop offset="1" stop-color="#E9E2FF"/>
</linearGradient>
<linearGradient id="paint8_linear_3294_1261" x1="94.9914" y1="59" x2="123" y2="59" gradientUnits="userSpaceOnUse">
<stop offset="0.56" stop-color="#C1BAE5" stop-opacity="0.8"/>
<stop offset="1" stop-color="#C1BAE5" stop-opacity="0.4"/>
</linearGradient>
<linearGradient id="paint9_linear_3294_1261" x1="93.9914" y1="57.0043" x2="120.991" y2="57.0043" gradientUnits="userSpaceOnUse">
<stop stop-color="#C1BAE5"/>
<stop offset="1" stop-color="#E9E2FF"/>
</linearGradient>
<linearGradient id="paint10_linear_3294_1261" x1="197.398" y1="51.1739" x2="106.084" y2="101.304" gradientUnits="userSpaceOnUse">
<stop stop-color="white" stop-opacity="0.6"/>
<stop offset="1" stop-color="white" stop-opacity="0"/>
</linearGradient>
<linearGradient id="paint11_linear_3294_1261" x1="157.862" y1="88.46" x2="163.204" y2="95.256" gradientUnits="userSpaceOnUse">
<stop offset="0.56" stop-color="#C1BAE5" stop-opacity="0.8"/>
<stop offset="1" stop-color="#C1BAE5" stop-opacity="0.4"/>
</linearGradient>
<linearGradient id="paint12_linear_3294_1261" x1="135.055" y1="64.9478" x2="138.546" y2="68.6843" gradientUnits="userSpaceOnUse">
<stop offset="0.08" stop-color="#B2ADDB" stop-opacity="0.8"/>
<stop offset="1" stop-color="#B2ADDB" stop-opacity="0.4"/>
</linearGradient>
<clipPath id="clip0_3294_1261">
<rect width="240" height="240" fill="white"/>
</clipPath>
</defs>
</svg>
