<svg width="204" height="145" viewBox="0 0 204 145" fill="none" xmlns="http://www.w3.org/2000/svg">
<path d="M53.5249 105.487H24.5249V137.487H53.5249V105.487Z" fill="url(#paint0_linear_2939_49063)"/>
<mask id="mask0_2939_49063" style="mask-type:alpha" maskUnits="userSpaceOnUse" x="24" y="105" width="30" height="33">
<path d="M53.525 105.076H24.9077V137.802H53.525V105.076Z" fill="#FBB040"/>
</mask>
<g mask="url(#mask0_2939_49063)">
<path d="M31.6828 138.53C31.6828 137.992 31.4923 137.553 31.0914 137.194C29.668 135.909 26.0796 135.958 24.8166 136.088L24.6763 134.732C24.8868 134.712 29.8384 134.234 32.0035 136.178C32.6952 136.796 33.046 137.583 33.046 138.52" fill="#FBB040"/>
<path d="M31.9133 138.529C31.9133 137.592 32.2642 136.805 32.9558 136.187C35.1209 134.243 40.0826 134.722 40.2831 134.742L40.1427 136.087C38.8797 135.958 35.2913 135.908 33.8679 137.194C33.467 137.553 33.2765 137.991 33.2765 138.529" fill="#FBB040"/>
<path d="M37.8484 128.014C37.8484 128.014 35.5931 127.376 34.7611 128.602C33.9191 129.808 36.2045 131.503 37.8484 128.014Z" fill="#FBB040"/>
<path d="M39.3308 131.394C39.3308 131.394 37.2358 130.357 36.1834 131.404C35.1309 132.45 37.0654 134.534 39.3308 131.394Z" fill="#FBB040"/>
<path d="M32.3348 125.144C32.3348 125.144 30.8814 126.968 31.6933 128.204C32.5052 129.44 34.951 127.984 32.3348 125.144Z" fill="#FBB040"/>
<path d="M32.3642 130.247C32.3642 130.247 30.8607 132.031 31.6325 133.287C32.4043 134.543 34.8901 133.167 32.3642 130.247Z" fill="#FBB040"/>
<path d="M26.9717 128.014C26.9717 128.014 29.227 127.376 30.059 128.602C30.8909 129.828 28.6156 131.503 26.9717 128.014Z" fill="#FBB040"/>
<path d="M25.4885 131.394C25.4885 131.394 27.5835 130.357 28.6359 131.404C29.6884 132.45 27.7438 134.534 25.4885 131.394Z" fill="#FBB040"/>
<path d="M17.3533 138.529C17.3533 137.592 17.7041 136.805 18.3957 136.187C20.5608 134.243 25.5225 134.722 25.723 134.742L25.5827 136.087C24.3197 135.958 20.7312 135.908 19.3079 137.194C18.9069 137.553 18.7165 137.991 18.7165 138.529" fill="#FBB040"/>
<path d="M45.8278 138.53C45.8278 137.992 45.6374 137.553 45.2364 137.194C43.8131 135.909 40.2246 135.958 38.9616 136.088L38.8213 134.732C39.0318 134.712 43.9835 134.234 46.1486 136.178C46.8402 136.796 47.191 137.583 47.191 138.52" fill="#FBB040"/>
<path d="M46.0581 138.529C46.0581 137.592 46.4089 136.805 47.1006 136.187C49.2657 134.243 54.2274 134.722 54.4278 134.742L54.2875 136.087C53.0245 135.958 49.4361 135.908 48.0127 137.194C47.6118 137.553 47.4213 137.991 47.4213 138.529" fill="#FBB040"/>
<path d="M51.9934 128.014C51.9934 128.014 49.7381 127.376 48.9061 128.602C48.0642 129.808 50.3495 131.503 51.9934 128.014Z" fill="#FBB040"/>
<path d="M53.4756 131.394C53.4756 131.394 51.3806 130.357 50.3281 131.404C49.2757 132.45 51.2102 134.534 53.4756 131.394Z" fill="#FBB040"/>
<path d="M46.4796 125.144C46.4796 125.144 45.0262 126.968 45.8381 128.204C46.65 129.44 49.0958 127.984 46.4796 125.144Z" fill="#FBB040"/>
<path d="M46.509 130.247C46.509 130.247 45.0054 132.031 45.7772 133.287C46.5491 134.543 49.0349 133.167 46.509 130.247Z" fill="#FBB040"/>
<path d="M41.1165 128.014C41.1165 128.014 43.3718 127.376 44.2037 128.602C45.0357 129.828 42.7603 131.503 41.1165 128.014Z" fill="#FBB040"/>
<path d="M39.6335 131.394C39.6335 131.394 41.7285 130.357 42.781 131.404C43.8334 132.45 41.8889 134.534 39.6335 131.394Z" fill="#FBB040"/>
<path d="M60.1801 138.53C60.1801 137.992 59.9896 137.553 59.5887 137.194C58.1653 135.909 54.5769 135.958 53.3139 136.088L53.1736 134.732C53.3841 134.712 58.3357 134.234 60.5009 136.178C61.1925 136.796 61.5433 137.583 61.5433 138.52" fill="#FBB040"/>
</g>
<path d="M24.5249 137.487H53.5249V140.488C53.5249 141.283 53.2339 142.046 52.7158 142.609C52.1977 143.171 51.4952 143.487 50.7628 143.487H27.2868C26.5543 143.487 25.8518 143.171 25.3338 142.609C24.8159 142.046 24.5249 141.283 24.5249 140.488V137.487Z" fill="url(#paint1_linear_2939_49063)"/>
<path opacity="0.5" d="M53.5249 140.673C53.5249 141.419 53.1386 142.135 52.451 142.663C51.7633 143.191 50.8307 143.487 49.8582 143.487H42.5249C43.4974 143.487 44.43 143.191 45.1176 142.663C45.8052 142.135 46.1916 141.419 46.1916 140.673V105.487H53.5249V140.673Z" fill="url(#paint2_linear_2939_49063)"/>
<path d="M18.994 113.502H25.0779V110.767H18.994C18.1274 110.767 17.2732 110.973 16.5018 111.368C15.7304 111.763 15.0639 112.335 14.5572 113.038C14.0505 113.741 13.7181 114.555 13.5874 115.411C13.4568 116.268 13.5315 117.143 13.8056 117.966L17.4491 128.903C17.812 129.992 18.5085 130.939 19.4397 131.61C20.3709 132.281 21.4897 132.642 22.6375 132.642H25.0779V129.908H22.6375C22.0635 129.909 21.5036 129.729 21.0374 129.394C20.5711 129.059 20.2222 128.586 20.0399 128.042L16.3964 117.104C16.2586 116.693 16.2207 116.254 16.2859 115.825C16.3511 115.396 16.5175 114.989 16.7713 114.637C17.0251 114.285 17.3591 113.998 17.7456 113.801C18.1321 113.603 18.56 113.501 18.994 113.502Z" fill="#FAEEE6"/>
<path d="M39.1139 88.8571C38.7819 86.2783 39.5335 82.0364 41.9188 82.8605C44.0837 83.6085 41.7026 86.7168 42.6667 88.8571C43.9117 91.6206 48.0035 91.044 48.2765 94.0798C48.6133 97.8271 41.5114 103.8 40.9838 100.076C40.6042 97.3971 44.6286 96.7724 44.3497 94.0798C44.047 91.1582 39.489 91.7697 39.1139 88.8571Z" fill="url(#paint3_linear_2939_49063)"/>
<path d="M36.8757 90.1623C37.1056 91.5509 36.5852 93.835 34.9339 93.3912C33.435 92.9884 35.0836 91.3147 34.416 90.1623C33.5542 88.6742 30.7214 88.9847 30.5324 87.35C30.2992 85.3323 35.2159 82.116 35.5811 84.1211C35.8439 85.5638 33.0578 85.9002 33.251 87.35C33.4605 88.9232 36.616 88.5939 36.8757 90.1623Z" fill="url(#paint4_linear_2939_49063)"/>
<path d="M0.524902 143.513H203.475" stroke="#E9E2FF" stroke-width="1.1"/>
<path d="M157.837 92.8601C156.743 98.7882 155.028 112.876 156.918 121.801" stroke="#3B8552" stroke-width="1.5"/>
<path d="M150.49 108.349C151.933 110.536 154.716 116.342 154.296 122.064" stroke="#3B8552" stroke-width="1.5"/>
<path d="M166.043 100.342C164.271 101.48 160.32 107.259 158.693 121.277" stroke="#3B8552" stroke-width="1.5"/>
<path d="M167.748 110.842C165.626 111.76 161.317 115.147 161.054 121.342" stroke="#3B8552" stroke-width="1.5"/>
<rect width="25.1429" height="25.1429" transform="matrix(-1 0 0 1 171.171 118.345)" fill="#E4EEF7"/>
<rect width="9.56519" height="25.1086" transform="matrix(-1 0 0 1 155.282 118.379)" fill="url(#paint5_linear_2939_49063)"/>
<path fill-rule="evenodd" clip-rule="evenodd" d="M167.499 105.018C165.724 106.724 165.421 109.519 166.894 111.582C168.368 113.646 171.109 114.267 173.299 113.142L167.499 105.018Z" fill="url(#paint6_linear_2939_49063)"/>
<path fill-rule="evenodd" clip-rule="evenodd" d="M152.814 102.586C153.878 104.808 153.178 107.533 151.072 108.947C148.966 110.361 146.179 109.976 144.525 108.15L152.814 102.586Z" fill="url(#paint7_linear_2939_49063)"/>
<path fill-rule="evenodd" clip-rule="evenodd" d="M153.398 90.8448C153.112 93.2913 154.655 95.6424 157.105 96.2988C159.555 96.9552 162.066 95.6908 163.041 93.4287L153.398 90.8448Z" fill="url(#paint8_linear_2939_49063)"/>
<path fill-rule="evenodd" clip-rule="evenodd" d="M164.355 93.9849C163.14 96.1282 163.649 98.8951 165.652 100.452C167.655 102.009 170.462 101.818 172.238 100.111L164.355 93.9849Z" fill="url(#paint9_linear_2939_49063)"/>
<circle cx="171.925" cy="108.13" r="1.57143" fill="#F5D9C4"/>
<circle cx="169.571" cy="95.5583" r="1.57143" fill="#F5D9C4"/>
<circle cx="158.568" cy="90.0587" r="1.57143" fill="#F5D9C4"/>
<circle cx="147.569" cy="103.416" r="1.57143" fill="#FBB040"/>
<path d="M61.5249 129.487H146.525V139.487C146.525 141.696 144.734 143.487 142.525 143.487H65.5249C63.3158 143.487 61.5249 141.696 61.5249 139.487V129.487Z" fill="url(#paint10_linear_2939_49063)"/>
<path d="M57.5249 28.4873C57.5249 21.8599 62.8975 16.4873 69.5249 16.4873H137.525C144.152 16.4873 149.525 21.8599 149.525 28.4873V131.487H57.5249V28.4873Z" fill="url(#paint11_linear_2939_49063)"/>
<rect x="65.5249" y="112.487" width="27" height="2" rx="1" fill="url(#paint12_linear_2939_49063)"/>
<path fill-rule="evenodd" clip-rule="evenodd" d="M136.335 108.487C136.335 108.487 135.233 109.879 135.849 110.821C136.464 111.764 138.319 110.654 136.335 108.487ZM140.515 110.677C140.515 110.677 138.805 110.191 138.174 111.126C137.535 112.046 139.268 113.338 140.515 110.677ZM135.391 117.679C135.695 117.953 135.839 118.287 135.839 118.698L136.013 118.697L136.013 118.699H137.047C137.047 118.289 137.192 117.954 137.496 117.68C138.575 116.7 141.297 116.738 142.255 116.837L142.361 115.81C142.209 115.795 138.446 115.43 136.804 116.913C136.667 117.036 136.548 117.167 136.446 117.307C136.343 117.164 136.222 117.029 136.082 116.904C134.447 115.427 130.715 115.783 130.527 115.801L130.525 115.801L130.631 116.835C131.589 116.737 134.311 116.699 135.391 117.679ZM141.64 113.255C141.64 113.255 140.051 112.465 139.252 113.263C138.454 114.061 139.921 115.65 141.64 113.255ZM136.356 112.38C136.356 112.38 135.216 113.741 135.801 114.699C136.387 115.657 138.272 114.607 136.356 112.38ZM132.263 110.677C132.263 110.677 133.974 110.191 134.605 111.126C135.236 112.061 133.51 113.338 132.263 110.677ZM131.142 113.255C131.142 113.255 132.731 112.465 133.529 113.263C134.328 114.061 132.853 115.65 131.142 113.255Z" fill="url(#paint13_linear_2939_49063)"/>
<rect x="65.5249" y="25.4873" width="76" height="77" rx="8" fill="#1E1A33"/>
<g opacity="0.4">
<path d="M84.5249 101.487V26.4873" stroke="#585080" stroke-width="1.5" stroke-linecap="square" stroke-linejoin="round"/>
<path d="M103.525 101.487V26.4873" stroke="#585080" stroke-width="1.5" stroke-linecap="square" stroke-linejoin="round"/>
<path d="M122.525 101.487V26.4873" stroke="#585080" stroke-width="1.5" stroke-linecap="square" stroke-linejoin="round"/>
<path d="M66.5249 44.542H140.525" stroke="#585080" stroke-width="1.5" stroke-linecap="square" stroke-linejoin="round"/>
<path d="M66.5249 63.9873H140.525" stroke="#585080" stroke-width="1.5" stroke-linecap="square" stroke-linejoin="round"/>
<path d="M66.5249 83.4326H140.525" stroke="#585080" stroke-width="1.5" stroke-linecap="square" stroke-linejoin="round"/>
</g>
<rect x="92.5249" y="50.4873" width="5" height="5" fill="#FBB040"/>
<rect x="109.525" y="50.4873" width="5" height="5" fill="#FBB040"/>
<rect x="84.5249" y="64.4873" width="5" height="6" fill="#FBB040"/>
<rect width="5" height="6" transform="matrix(-1 0 0 1 122.525 64.4873)" fill="#FBB040"/>
<rect x="89.5249" y="70.4873" width="5" height="6" fill="#FBB040"/>
<rect width="5" height="6" transform="matrix(-1 0 0 1 117.525 70.4873)" fill="#FBB040"/>
<rect x="94.5249" y="76.4873" width="18" height="6" fill="#FBB040"/>
<path opacity="0.3" d="M137.896 33.0769C137.876 31.8301 137.336 30.6466 136.387 29.7749C135.438 28.9032 134.154 28.411 132.806 28.4018L119.364 28.3055L65.7198 67.3147L66.1233 95.3033L66.101 95.4617L137.99 43.2061L137.896 33.0769Z" fill="url(#paint14_linear_2939_49063)"/>
<path fill-rule="evenodd" clip-rule="evenodd" d="M67.5249 28.5977C67.9582 28.5251 68.4033 28.4873 68.8572 28.4873H128.857C133.276 28.4873 136.857 32.069 136.857 36.4873V97.4873C136.857 99.3287 136.235 101.025 135.19 102.377C138.974 101.743 141.857 98.4517 141.857 94.4873V33.4873C141.857 29.069 138.276 25.4873 133.857 25.4873H73.8572C71.2804 25.4873 68.988 26.7057 67.5249 28.5977Z" fill="#423C60"/>
<path d="M74.5249 12.4873C77.8386 12.4873 80.5249 9.80101 80.5249 6.4873C80.5249 3.1736 77.8386 0.487305 74.5249 0.487305C71.2112 0.487305 68.5249 3.1736 68.5249 6.4873C68.5249 9.80101 71.2112 12.4873 74.5249 12.4873Z" fill="#D7F5E1"/>
<path d="M78.0208 16.6308L77.9568 19.4308C77.9647 19.4865 77.9647 19.5431 77.9568 19.5988V19.6188C77.8328 20.0188 77.2448 20.3988 76.2608 20.6108C74.5848 20.9748 72.4168 20.7388 71.4168 20.0788C71.2795 20.0115 71.1621 19.9099 71.0758 19.7837C70.9896 19.6575 70.9376 19.5111 70.9248 19.3588V19.2908L70.9848 16.4428L78.0208 16.6308Z" fill="url(#paint15_linear_2939_49063)"/>
<path d="M77.5452 15.8753C76.5452 15.2153 74.3772 14.9753 72.7012 15.3393C71.0252 15.7033 70.4812 16.5393 71.4812 17.1953C72.4812 17.8513 74.6492 18.0953 76.3212 17.7273C77.9932 17.3593 78.5452 16.5273 77.5452 15.8753Z" fill="#F5F3FD"/>
<path d="M75.5253 9.92304C75.6493 10.003 75.6973 10.091 75.6813 10.179L75.6213 16.531C75.6232 16.5497 75.6232 16.5684 75.6213 16.587C75.5813 16.719 75.3933 16.835 75.0773 16.907C74.558 17.0262 74.0136 16.9656 73.5333 16.735C73.4895 16.7137 73.4519 16.6815 73.4239 16.6417C73.3959 16.6018 73.3785 16.5555 73.3733 16.507V16.483L73.4453 10.083C73.4453 9.93904 73.6533 9.80704 73.9933 9.73104C74.511 9.62083 75.0508 9.68847 75.5253 9.92304Z" fill="url(#paint16_linear_2939_49063)"/>
<path d="M74.5329 10.1909C76.4526 10.1909 78.0089 8.6346 78.0089 6.71486C78.0089 4.79512 76.4526 3.23886 74.5329 3.23886C72.6131 3.23886 71.0569 4.79512 71.0569 6.71486C71.0569 8.6346 72.6131 10.1909 74.5329 10.1909Z" fill="#3B8552"/>
<path d="M75.3892 5.09871C75.5412 5.49871 74.7692 6.55471 73.7212 6.72271C72.6732 6.89071 72.0492 6.14671 72.3732 5.43871C72.6972 4.73071 74.9012 3.71471 75.3892 5.09871Z" fill="white"/>
<defs>
<linearGradient id="paint0_linear_2939_49063" x1="39.0249" y1="105.487" x2="39.0249" y2="137.487" gradientUnits="userSpaceOnUse">
<stop stop-color="#FFF8F2"/>
<stop offset="1" stop-color="#FCECE2"/>
</linearGradient>
<linearGradient id="paint1_linear_2939_49063" x1="39.0249" y1="137.487" x2="39.0249" y2="143.487" gradientUnits="userSpaceOnUse">
<stop stop-color="#FDEEE4"/>
<stop offset="1" stop-color="#F5D9C4"/>
</linearGradient>
<linearGradient id="paint2_linear_2939_49063" x1="48.0249" y1="105.487" x2="48.0249" y2="143.487" gradientUnits="userSpaceOnUse">
<stop stop-color="#FAECE2"/>
<stop offset="1" stop-color="#EECDB5"/>
</linearGradient>
<linearGradient id="paint3_linear_2939_49063" x1="43.6638" y1="101.253" x2="43.6638" y2="82.756" gradientUnits="userSpaceOnUse">
<stop stop-color="#ECE6FB"/>
<stop offset="1" stop-color="#F1EBFF"/>
</linearGradient>
<linearGradient id="paint4_linear_2939_49063" x1="33.7258" y1="93.4474" x2="33.7258" y2="83.4875" gradientUnits="userSpaceOnUse">
<stop stop-color="#ECE6FB"/>
<stop offset="1" stop-color="#F1EBFF"/>
</linearGradient>
<linearGradient id="paint5_linear_2939_49063" x1="8.36954" y1="13.1521" x2="1.79347" y2="13.1521" gradientUnits="userSpaceOnUse">
<stop stop-color="#B7CEE1"/>
<stop offset="1" stop-color="#DAE8F3"/>
</linearGradient>
<linearGradient id="paint6_linear_2939_49063" x1="170.399" y1="109.08" x2="166.894" y2="111.582" gradientUnits="userSpaceOnUse">
<stop stop-color="#8BE3A7"/>
<stop offset="1" stop-color="#64C783"/>
</linearGradient>
<linearGradient id="paint7_linear_2939_49063" x1="148.669" y1="105.368" x2="151.072" y2="108.947" gradientUnits="userSpaceOnUse">
<stop stop-color="#8BE3A7"/>
<stop offset="1" stop-color="#64C783"/>
</linearGradient>
<linearGradient id="paint8_linear_2939_49063" x1="158.22" y1="92.1367" x2="157.105" y2="96.2988" gradientUnits="userSpaceOnUse">
<stop stop-color="#8BE3A7"/>
<stop offset="1" stop-color="#64C783"/>
</linearGradient>
<linearGradient id="paint9_linear_2939_49063" x1="168.297" y1="97.0481" x2="165.652" y2="100.452" gradientUnits="userSpaceOnUse">
<stop stop-color="#8BE3A7"/>
<stop offset="1" stop-color="#64C783"/>
</linearGradient>
<linearGradient id="paint10_linear_2939_49063" x1="104.025" y1="129.487" x2="104.025" y2="143.487" gradientUnits="userSpaceOnUse">
<stop stop-color="#D3C9F4"/>
<stop offset="1" stop-color="#E9E2FF"/>
</linearGradient>
<linearGradient id="paint11_linear_2939_49063" x1="103.525" y1="16.4873" x2="103.525" y2="131.487" gradientUnits="userSpaceOnUse">
<stop stop-color="#F5F3FC"/>
<stop offset="1" stop-color="#F1EEFB"/>
</linearGradient>
<linearGradient id="paint12_linear_2939_49063" x1="79.0249" y1="112.487" x2="79.0249" y2="114.487" gradientUnits="userSpaceOnUse">
<stop stop-color="#D7CDF6"/>
<stop offset="1" stop-color="#F2EFFC"/>
</linearGradient>
<linearGradient id="paint13_linear_2939_49063" x1="136.443" y1="108.487" x2="136.443" y2="118.699" gradientUnits="userSpaceOnUse">
<stop stop-color="#E2DEF0"/>
<stop offset="1" stop-color="#CFC2FB"/>
</linearGradient>
<linearGradient id="paint14_linear_2939_49063" x1="119.167" y1="41.6699" x2="77.4247" y2="79.8409" gradientUnits="userSpaceOnUse">
<stop stop-color="#F2EFFB"/>
<stop offset="1" stop-color="#F2EFFB" stop-opacity="0"/>
</linearGradient>
<linearGradient id="paint15_linear_2939_49063" x1="74.4728" y1="16.4428" x2="74.4728" y2="20.7817" gradientUnits="userSpaceOnUse">
<stop stop-color="#DCD6F5"/>
<stop offset="1" stop-color="#DCD6F5" stop-opacity="0"/>
</linearGradient>
<linearGradient id="paint16_linear_2939_49063" x1="74.5288" y1="9.67949" x2="74.5288" y2="16.9667" gradientUnits="userSpaceOnUse">
<stop stop-color="#C4D8EA"/>
<stop offset="1" stop-color="#E4EFF8"/>
</linearGradient>
</defs>
</svg>
