<svg width="95" height="24" viewBox="0 0 95 24" fill="none" xmlns="http://www.w3.org/2000/svg">
<path d="M9.05281 19.3307C9.05281 18.6313 8.80674 18.0615 8.28869 17.5953C6.44964 15.9246 1.81315 15.9893 0.181316 16.1577L0 14.3963C0.271973 14.3704 6.66981 13.7488 9.46724 16.2743C10.3609 17.0772 10.8142 18.1004 10.8142 19.3178" fill="#FBB040"/>
<path d="M9.35066 19.3307C9.35066 18.1133 9.80395 17.0902 10.6976 16.2872C13.495 13.7618 19.9058 14.3834 20.1648 14.4093L19.9835 16.1577C18.3517 15.9893 13.7152 15.9246 11.8761 17.5953C11.3581 18.0615 11.112 18.6314 11.112 19.3307" fill="#FBB040"/>
<path d="M17.0177 5.66731C17.0177 5.66731 14.1037 4.83844 13.0288 6.43142C11.9409 7.9985 14.8937 10.2002 17.0177 5.66731Z" fill="#FBB040"/>
<path d="M18.9345 10.0577C18.9345 10.0577 16.2277 8.71079 14.8678 10.0707C13.508 11.4305 16.0075 14.1373 18.9345 10.0577Z" fill="#FBB040"/>
<path d="M9.89464 1.93738C9.89464 1.93738 8.01674 4.30743 9.06577 5.91336C10.1148 7.51929 13.2749 5.62844 9.89464 1.93738Z" fill="#FBB040"/>
<path d="M9.93349 8.56836C9.93349 8.56836 7.99082 10.8866 8.98806 12.5184C9.98529 14.1503 13.1972 12.363 9.93349 8.56836Z" fill="#FBB040"/>
<path d="M2.96579 5.66731C2.96579 5.66731 5.87978 4.83844 6.95472 6.43142C8.02966 8.0244 5.08977 10.2002 2.96579 5.66731Z" fill="#FBB040"/>
<path d="M1.04901 10.0577C1.04901 10.0577 3.75579 8.71079 5.11565 10.0707C6.47552 11.4305 3.96301 14.1373 1.04901 10.0577Z" fill="#FBB040"/>
<path d="M27.8108 9.00857C27.8108 7.571 28.3288 6.34065 29.3649 5.33046C30.401 4.32028 31.6443 3.81519 33.0948 3.81519H35.1929V6.85869H33.5093C32.7581 6.85869 32.1494 7.09181 31.6961 7.5451C31.2428 7.99839 31.0227 8.60709 31.0227 9.3712V17.6599H27.8108V9.00857Z" fill="#1E1A33"/>
<path d="M42.6641 3.69873C44.6198 3.69873 46.2775 4.38514 47.6374 5.745C48.9972 7.10487 49.6836 8.78851 49.6836 10.783C49.6836 12.7904 48.9972 14.487 47.6374 15.8598C46.2775 17.2326 44.5939 17.919 42.5994 17.919C40.6826 17.919 39.0378 17.2197 37.665 15.8339C36.2922 14.4481 35.6058 12.7645 35.6058 10.783C35.6058 8.78851 36.2922 7.11782 37.6521 5.745C39.0249 4.38514 40.6956 3.69873 42.6641 3.69873ZM38.9083 10.8607C38.9083 11.9097 39.2839 12.8292 40.0221 13.6322C40.7733 14.4222 41.654 14.8237 42.6641 14.8237C43.6355 14.8237 44.5032 14.4222 45.2673 13.6322C46.0185 12.8422 46.407 11.8968 46.407 10.8089C46.407 9.73393 46.0314 8.81441 45.3062 8.01144C44.5809 7.20847 43.6873 6.81994 42.6771 6.81994C41.641 6.81994 40.7603 7.22143 40.0221 8.01144C39.2839 8.80146 38.9083 9.75984 38.9083 10.8607Z" fill="#1E1A33"/>
<path d="M57.8039 3.69873C59.7595 3.69873 61.4173 4.38514 62.7771 5.745C64.137 7.10487 64.8234 8.78851 64.8234 10.783C64.8234 12.7904 64.137 14.487 62.7771 15.8598C61.4173 17.2326 59.7336 17.919 57.7392 17.919C55.8224 17.919 54.1776 17.2197 52.8048 15.8339C51.432 14.4481 50.7456 12.7645 50.7456 10.783C50.7456 8.78851 51.432 7.11782 52.7918 5.745C54.1517 4.38514 55.8224 3.69873 57.8039 3.69873ZM54.0352 10.8607C54.0352 11.9097 54.4107 12.8292 55.1619 13.6322C55.9131 14.4222 56.7937 14.8237 57.8039 14.8237C58.7752 14.8237 59.643 14.4222 60.4071 13.6322C61.1582 12.8422 61.5468 11.8968 61.5468 10.8089C61.5468 9.73393 61.1712 8.81441 60.4459 8.01144C59.7077 7.22143 58.827 6.81994 57.8169 6.81994C56.7808 6.81994 55.9001 7.22143 55.1619 8.01144C54.4237 8.80146 54.0352 9.75984 54.0352 10.8607Z" fill="#1E1A33"/>
<path d="M77.7 12.5573C77.7 13.2048 77.8943 13.7358 78.2958 14.1373C78.6973 14.5518 79.2283 14.746 79.9017 14.759H80.2125V17.66H79.5779C79.5025 17.6594 79.4277 17.6575 79.3535 17.6545C77.9646 17.5973 76.8103 17.1206 75.9128 16.2354C74.9544 15.29 74.4882 14.0467 74.5011 12.5055V0.214905H77.7V12.5573Z" fill="#1E1A33"/>
<path d="M80.1063 3.7894C80.3653 4.51466 80.6373 5.0586 80.8445 5.5637C82.2043 9.02164 83.629 12.091 84.9888 15.549C86.1803 18.5536 85.2219 19.3048 81.9971 20.1207L80.8833 23.7729C84.1988 23.9542 88.4209 22.1022 89.8196 18.8386C91.296 14.0078 93.0573 8.6331 95 3.80235H93.6272C91.2312 3.80235 90.7132 5.93928 90.7132 5.93928C89.8973 8.5813 88.8094 11.1456 87.7086 14.0726C87.3977 13.3214 87.2164 12.9199 87.0739 12.5184C86.1285 9.98002 85.5328 8.25752 84.5226 5.74501C84.5226 5.74501 83.9786 3.80235 81.777 3.80235H80.1063V3.7894Z" fill="#1E1A33"/>
<path fill-rule="evenodd" clip-rule="evenodd" d="M70.1952 14.1373C69.7937 13.7358 69.5994 13.2048 69.5994 12.5573V7.0522H72.2306V4.08883H69.5994V0.214905H66.4005V12.5055C66.3875 14.0467 66.8538 15.29 67.8122 16.2354C68.7097 17.1206 69.864 17.5973 71.2529 17.6545C71.3271 17.6575 71.4019 17.6594 71.4773 17.66H72.1119V14.759H71.8011C71.1276 14.746 70.5967 14.5518 70.1952 14.1373Z" fill="#1E1A33"/>
</svg>
